<svg width="685" height="178" viewBox="0 0 685 178" fill="none" xmlns="http://www.w3.org/2000/svg">
<path d="M0 114.361H83.3244C88.8473 114.361 93.3244 109.884 93.3244 104.361V85.5707C93.3244 74.525 102.279 65.5707 113.324 65.5707H136.573C147.618 65.5707 156.573 74.525 156.573 85.5707V89.0874C156.573 94.6102 161.05 99.0874 166.573 99.0874H199.821C210.867 99.0874 219.821 90.1331 219.821 79.0874V31.9315C219.821 15.363 233.253 1.93152 249.821 1.93152H332.164H380.99C386.512 1.93152 390.99 6.40867 390.99 11.9315V29.6908C390.99 35.2136 395.467 39.6908 400.99 39.6908H411.066C416.589 39.6908 421.066 44.1679 421.066 49.6908V63.2078C421.066 70.2545 428.159 75.0908 434.719 72.5168L474.165 57.0374C477.657 55.6674 481.374 54.9642 485.124 54.9642H540.928H581.792C587.315 54.9642 591.792 59.4413 591.792 64.9642V75.511C591.792 81.0339 596.269 85.511 601.792 85.511H637.079C642.602 85.511 647.079 89.9882 647.079 95.511V104.361C647.079 109.884 651.556 114.361 657.079 114.361H673.347C678.87 114.361 683.347 118.838 683.347 124.361V178" stroke="#9B9999" stroke-width="2"/>
</svg>
